<svg width="120" height="120" viewBox="0 0 156.801 87.401" xmlns="http://www.w3.org/2000/svg"><g id="svgGroup" stroke-linecap="round" fill-rule="evenodd" font-size="9pt" stroke="#cccccc" stroke-width="0.1mm" fill="#ffffff" style="stroke:#ccc;stroke-width:0.1mm;fill:#ffffff">
  <g transform="scale(1 1.1) translate(0 -20)">
  <path d="M 20.601 87.401 L 12.201 87.401 L 12.201 31.101 Q 7.101 29.701 3.551 25.501 Q 0.001 21.301 0.001 15.901 Q 0.001 11.501 2.301 7.901 Q 4.601 4.301 8.351 2.151 Q 12.101 0.001 16.401 0.001 Q 20.801 0.001 24.501 2.151 Q 28.201 4.301 30.501 7.901 Q 32.801 11.501 32.801 15.901 Q 32.801 21.301 29.251 25.501 Q 25.701 29.701 20.601 31.101 L 20.601 87.401 Z M 16.401 24.101 A 8.225 8.225 0 0 0 19.945 23.347 A 8.138 8.138 0 0 0 22.301 21.651 A 8.067 8.067 0 0 0 24.701 15.814 A 9.579 9.579 0 0 0 24.701 15.801 A 7.893 7.893 0 0 0 22.375 10.076 A 9.515 9.515 0 0 0 22.301 10.001 A 8.004 8.004 0 0 0 16.51 7.601 A 10.133 10.133 0 0 0 16.401 7.601 A 8.067 8.067 0 0 0 10.56 9.991 A 9.863 9.863 0 0 0 10.551 10.001 A 7.944 7.944 0 0 0 8.452 13.368 A 8.239 8.239 0 0 0 8.101 15.801 A 7.971 7.971 0 0 0 10.475 21.574 A 9.912 9.912 0 0 0 10.551 21.651 Q 13.001 24.101 16.401 24.101 Z" id="0" vector-effect="non-scaling-stroke"/>
  <g transform="translate(-16 0)">
  <path d="M 81.301 87.401 L 73.001 87.401 L 73.001 37.601 Q 66.19 36.941 61.82 34.111 A 16.054 16.054 0 0 1 58.951 31.751 A 16.498 16.498 0 0 1 54.814 23.951 A 24.554 24.554 0 0 1 54.201 18.301 L 54.201 1.501 L 62.501 1.501 L 62.501 18.001 Q 62.501 21.697 63.678 24.173 A 8.291 8.291 0 0 0 65.301 26.501 A 11.476 11.476 0 0 0 69.366 29.085 Q 70.907 29.677 72.753 29.964 A 20.341 20.341 0 0 0 73.001 30.001 L 73.001 1.501 L 81.301 1.501 L 81.301 30.001 A 17.37 17.37 0 0 0 84.669 29.203 Q 86.691 28.491 88.186 27.285 A 10.116 10.116 0 0 0 89.051 26.501 A 8.711 8.711 0 0 0 91.047 23.173 Q 91.518 21.805 91.695 20.127 A 20.34 20.34 0 0 0 91.801 18.001 L 91.801 1.501 L 100.101 1.501 L 100.101 18.301 A 24.889 24.889 0 0 1 99.494 23.958 A 16.768 16.768 0 0 1 95.401 31.801 Q 91.418 36.038 84.06 37.259 A 34.98 34.98 0 0 1 81.301 37.601 L 81.301 87.401 Z" id="1" vector-effect="non-scaling-stroke"/></g>
  <g transform="translate(-32 0)">
  <path d="M 156.801 87.401 L 121.601 87.401 L 121.601 1.501 L 156.801 1.501 L 156.801 87.401 Z M 129.901 46.901 L 129.901 80.101 L 148.501 80.101 L 148.501 46.901 L 129.901 46.901 Z M 129.901 8.801 L 129.901 39.501 L 148.501 39.501 L 148.501 8.801 L 129.901 8.801 Z" id="2" vector-effect="non-scaling-stroke"/></g></g></g></svg>